<?xml version="1.0" encoding="UTF-8"?><svg id="Layer_1" xmlns="http://www.w3.org/2000/svg" xmlns:xlink="http://www.w3.org/1999/xlink" viewBox="0 0 290.91 290.91"><defs><style>.cls-1{clip-path:url(#clippath-2);}.cls-2{clip-path:url(#clippath-1);}.cls-3{fill:#4285f4;}.cls-4{fill:#fbbc05;}.cls-5{clip-path:url(#clippath);}.cls-6{fill:none;}.cls-7{fill:#34a853;}.cls-8{clip-path:url(#clippath-3);}.cls-9{fill:#ea4335;}</style><clipPath id="clippath"><path class="cls-6" d="m229.35,18.01H55.13c-20.59,0-37.33,16.75-37.33,37.33v174.22c0,20.59,16.75,37.33,37.33,37.33h174.22c20.59,0,37.33-16.75,37.33-37.33V55.34c0-20.59-16.75-37.33-37.33-37.33ZM92.46,242.01h-37.33c-6.86,0-12.44-5.58-12.44-12.44v-112h49.78v124.44Zm149.33-12.44c0,6.86-5.58,12.44-12.44,12.44h-112v-124.44h124.44v112Zm0-136.89H42.68v-37.33c0-6.86,5.58-12.44,12.44-12.44h174.22c6.86,0,12.44,5.58,12.44,12.44v37.33Z"/></clipPath><clipPath id="clippath-1"><path class="cls-6" d="m229.35,18.01H55.13c-20.59,0-37.33,16.75-37.33,37.33v174.22c0,20.59,16.75,37.33,37.33,37.33h174.22c20.59,0,37.33-16.75,37.33-37.33V55.34c0-20.59-16.75-37.33-37.33-37.33ZM92.46,242.01h-37.33c-6.86,0-12.44-5.58-12.44-12.44v-112h49.78v124.44Zm149.33-12.44c0,6.86-5.58,12.44-12.44,12.44h-112v-124.44h124.44v112Zm0-136.89H42.68v-37.33c0-6.86,5.58-12.44,12.44-12.44h174.22c6.86,0,12.44,5.58,12.44,12.44v37.33Z"/></clipPath><clipPath id="clippath-2"><path class="cls-6" d="m229.35,18.01H55.13c-20.59,0-37.33,16.75-37.33,37.33v174.22c0,20.59,16.75,37.33,37.33,37.33h174.22c20.59,0,37.33-16.75,37.33-37.33V55.34c0-20.59-16.75-37.33-37.33-37.33ZM92.46,242.01h-37.33c-6.86,0-12.44-5.58-12.44-12.44v-112h49.78v124.44Zm149.33-12.44c0,6.86-5.58,12.44-12.44,12.44h-112v-124.44h124.44v112Zm0-136.89H42.68v-37.33c0-6.86,5.58-12.44,12.44-12.44h174.22c6.86,0,12.44,5.58,12.44,12.44v37.33Z"/></clipPath><clipPath id="clippath-3"><path class="cls-6" d="m229.35,18.01H55.13c-20.59,0-37.33,16.75-37.33,37.33v174.22c0,20.59,16.75,37.33,37.33,37.33h174.22c20.59,0,37.33-16.75,37.33-37.33V55.34c0-20.59-16.75-37.33-37.33-37.33ZM92.46,242.01h-37.33c-6.86,0-12.44-5.58-12.44-12.44v-112h49.78v124.44Zm149.33-12.44c0,6.86-5.58,12.44-12.44,12.44h-112v-124.44h124.44v112Zm0-136.89H42.68v-37.33c0-6.86,5.58-12.44,12.44-12.44h174.22c6.86,0,12.44,5.58,12.44,12.44v37.33Z"/></clipPath></defs><g class="cls-5"><path class="cls-4" d="m0,224.24V66.67l103.03,78.79L0,224.24Z"/></g><g class="cls-2"><path class="cls-9" d="m0,66.67l103.03,78.79,42.42-36.97,145.45-23.64V0H0v66.67Z"/></g><g class="cls-1"><path class="cls-7" d="m290.91,16v274.91H0v-66.67L181.82,84.85,290.91,16Z"/></g><g class="cls-8"><path class="cls-3" d="m290.91,290.91L103.03,145.45l-24.24-18.18L290.91,12.67v278.24Z"/></g></svg>