<?xml version="1.0" encoding="UTF-8"?><svg id="Layer_1" xmlns="http://www.w3.org/2000/svg" xmlns:xlink="http://www.w3.org/1999/xlink" viewBox="0 0 256 256"><defs><style>.cls-1{clip-path:url(#clippath-2);}.cls-2{clip-path:url(#clippath-1);}.cls-3{fill:#4285f4;}.cls-4{fill:#fbbc05;}.cls-5{clip-path:url(#clippath);}.cls-6{fill:none;}.cls-7{fill:#34a853;}.cls-8{clip-path:url(#clippath-3);}.cls-9{fill:#ea4335;}</style><clipPath id="clippath"><path class="cls-6" d="m215.11,3.56H40.89C20.3,3.56,3.56,20.3,3.56,40.89v174.22c0,20.59,16.75,37.33,37.33,37.33h174.22c20.59,0,37.33-16.75,37.33-37.33V40.89c0-20.59-16.75-37.33-37.33-37.33ZM78.22,227.56h-37.33c-6.86,0-12.44-5.58-12.44-12.44v-112h49.78v124.44Zm149.33-12.44c0,6.86-5.58,12.44-12.44,12.44h-112v-124.44h124.44v112Zm0-136.89H28.44v-37.33c0-6.86,5.58-12.44,12.44-12.44h174.22c6.86,0,12.44,5.58,12.44,12.44v37.33Z"/></clipPath><clipPath id="clippath-1"><path class="cls-6" d="m215.11,3.56H40.89C20.3,3.56,3.56,20.3,3.56,40.89v174.22c0,20.59,16.75,37.33,37.33,37.33h174.22c20.59,0,37.33-16.75,37.33-37.33V40.89c0-20.59-16.75-37.33-37.33-37.33ZM78.22,227.56h-37.33c-6.86,0-12.44-5.58-12.44-12.44v-112h49.78v124.44Zm149.33-12.44c0,6.86-5.58,12.44-12.44,12.44h-112v-124.44h124.44v112Zm0-136.89H28.44v-37.33c0-6.86,5.58-12.44,12.44-12.44h174.22c6.86,0,12.44,5.58,12.44,12.44v37.33Z"/></clipPath><clipPath id="clippath-2"><path class="cls-6" d="m215.11,3.56H40.89C20.3,3.56,3.56,20.3,3.56,40.89v174.22c0,20.59,16.75,37.33,37.33,37.33h174.22c20.59,0,37.33-16.75,37.33-37.33V40.89c0-20.59-16.75-37.33-37.33-37.33ZM78.22,227.56h-37.33c-6.86,0-12.44-5.58-12.44-12.44v-112h49.78v124.44Zm149.33-12.44c0,6.86-5.58,12.44-12.44,12.44h-112v-124.44h124.44v112Zm0-136.89H28.44v-37.33c0-6.86,5.58-12.44,12.44-12.44h174.22c6.86,0,12.44,5.58,12.44,12.44v37.33Z"/></clipPath><clipPath id="clippath-3"><path class="cls-6" d="m215.11,3.56H40.89C20.3,3.56,3.56,20.3,3.56,40.89v174.22c0,20.59,16.75,37.33,37.33,37.33h174.22c20.59,0,37.33-16.75,37.33-37.33V40.89c0-20.59-16.75-37.33-37.33-37.33ZM78.22,227.56h-37.33c-6.86,0-12.44-5.58-12.44-12.44v-112h49.78v124.44Zm149.33-12.44c0,6.86-5.58,12.44-12.44,12.44h-112v-124.44h124.44v112Zm0-136.89H28.44v-37.33c0-6.86,5.58-12.44,12.44-12.44h174.22c6.86,0,12.44,5.58,12.44,12.44v37.33Z"/></clipPath></defs><g class="cls-5"><path class="cls-4" d="m-14.24,209.79V52.21l103.03,78.79L-14.24,209.79Z"/></g><g class="cls-2"><path class="cls-9" d="m-14.24,52.21l103.03,78.79,42.42-36.97,145.45-23.64V-14.45H-14.24V52.21Z"/></g><g class="cls-1"><path class="cls-7" d="m276.67,1.55v274.91H-14.24v-66.67L167.58,70.39,276.67,1.55Z"/></g><g class="cls-8"><path class="cls-3" d="m276.67,276.45L88.79,131l-24.24-18.18L276.67-1.79v278.24Z"/></g></svg>